<svg width="55" height="11" viewBox="0 0 55 11" fill="none" xmlns="http://www.w3.org/2000/svg">
<g clip-path="url(#clip0_46_3929)">
<path fill-rule="evenodd" clip-rule="evenodd" d="M2.65033 2.08729C2.79048 1.94713 2.79048 1.71989 2.65033 1.57973C2.51017 1.43957 2.28292 1.43957 2.14276 1.57973L1.06606 2.65643C0.925898 2.79659 0.925898 3.02384 1.06606 3.164C1.20622 3.30416 1.43346 3.30416 1.57362 3.164L2.65033 2.08729ZM7.67495 1.57973C7.53479 1.43957 7.30754 1.43957 7.16738 1.57973C7.02722 1.71989 7.02722 1.94713 7.16738 2.08729L8.24409 3.164C8.38425 3.30416 8.61149 3.30416 8.75165 3.164C8.89181 3.02384 8.89181 2.79659 8.75165 2.65643L7.67495 1.57973ZM4.90933 2.91019C3.3236 2.91019 2.03812 4.19567 2.03812 5.7814C2.03812 7.36712 3.3236 8.65261 4.90933 8.65261C6.49505 8.65261 7.78054 7.36712 7.78054 5.7814C7.78054 4.19567 6.49505 2.91019 4.90933 2.91019ZM1.32031 5.7814C1.32031 3.79924 2.92717 2.19238 4.90933 2.19238C6.89149 2.19238 8.49834 3.79924 8.49834 5.7814C8.49834 7.76356 6.89149 9.37041 4.90933 9.37041C2.92717 9.37041 1.32031 7.76356 1.32031 5.7814ZM4.91359 3.62793C5.1118 3.62793 5.27249 3.78862 5.27249 3.98683V5.58933L6.18935 6.2005C6.35428 6.31044 6.39887 6.53326 6.28894 6.6982C6.179 6.86313 5.95617 6.90772 5.79124 6.79778L4.87424 6.18657C4.77597 6.121 4.69526 6.0321 4.63954 5.92792C4.58382 5.82376 4.55468 5.70745 4.55469 5.58933V3.98683C4.55469 3.78862 4.71537 3.62793 4.91359 3.62793Z" fill="white"/>
</g>
<path fill-rule="evenodd" clip-rule="evenodd" d="M16.1249 1.77483C16.2449 1.71619 16.3885 1.72884 16.4959 1.80753L18.7735 3.47678C18.8641 3.54316 18.9168 3.64784 18.9152 3.75846C18.9137 3.86908 18.8581 3.97232 18.7657 4.03627L16.7623 5.423L18.7657 6.80974C18.8581 6.87368 18.9137 6.97692 18.9152 7.08755C18.9168 7.19817 18.8641 7.30285 18.7735 7.36923L16.4959 9.03848C16.3885 9.11716 16.2449 9.12982 16.1249 9.07117C16.0048 9.01253 15.929 8.89264 15.929 8.76151V5.99977L14.2105 7.1893C14.0508 7.29983 13.8297 7.26293 13.7166 7.1069C13.6035 6.95087 13.6412 6.73479 13.8009 6.62426L15.5364 5.423L13.8009 4.22174C13.6412 4.11122 13.6035 3.89514 13.7166 3.73911C13.8297 3.58307 14.0508 3.54618 14.2105 3.6567L15.929 4.84623V2.0845C15.929 1.95336 16.0048 1.83348 16.1249 1.77483ZM16.6376 6.18525L17.9596 7.10025L16.6376 8.06908V6.18525ZM16.6376 4.66076V2.77693L17.9596 3.74576L16.6376 4.66076Z" fill="white"/>
<path fill-rule="evenodd" clip-rule="evenodd" d="M25.7948 3.43882C26.3677 3.20084 26.982 3.07872 27.6023 3.07953L27.6029 3.07953C28.9076 3.07953 30.0877 3.60926 30.9413 4.46643C31.1054 4.63123 31.372 4.63179 31.5368 4.46769C31.7016 4.30358 31.7022 4.03695 31.5381 3.87215C30.533 2.8628 29.1408 2.23738 27.6031 2.23731L27.6034 2.23731L27.6029 2.65842V2.23731L27.6031 2.23731C26.8716 2.23639 26.1472 2.38041 25.4717 2.66104C24.7961 2.94171 24.1828 3.35347 23.6673 3.87253C23.5034 4.03754 23.5043 4.30417 23.6693 4.46807C23.8343 4.63196 24.1009 4.63106 24.2648 4.46605C24.702 4.02593 25.222 3.6768 25.7948 3.43882ZM26.3727 4.90939C26.7614 4.74346 27.1797 4.65817 27.6023 4.6587H27.6034C28.026 4.65817 28.4443 4.74346 28.833 4.90939C29.2216 5.07533 29.5726 5.31845 29.8645 5.62403C30.0252 5.79219 30.2917 5.79828 30.4599 5.63763C30.6281 5.47697 30.6341 5.21041 30.4735 5.04224C30.1028 4.65422 29.6572 4.34551 29.1637 4.13481C28.6703 3.92418 28.1393 3.81588 27.6029 3.81648L27.6034 3.81648L27.6029 4.23759L27.6023 3.81648L27.6029 3.81648C27.0664 3.81588 26.5354 3.92418 26.042 4.13481C25.5485 4.34551 25.1029 4.65422 24.7322 5.04224C24.5716 5.21041 24.5776 5.47697 24.7458 5.63763C24.914 5.79828 25.1805 5.79219 25.3412 5.62403C25.6331 5.31845 25.9841 5.07533 26.3727 4.90939ZM26.9616 6.37591C27.1629 6.28469 27.3814 6.23762 27.6024 6.23786L27.6029 6.23786C28.0683 6.23786 28.4856 6.44226 28.7707 6.76721C28.9241 6.94203 29.1902 6.95941 29.365 6.80602C29.5398 6.65263 29.5572 6.38657 29.4038 6.21175C28.9657 5.71242 28.3211 5.39571 27.6031 5.39564L27.6033 5.39564L27.6029 5.81675V5.39564H27.6031C27.2619 5.39529 26.9247 5.46797 26.614 5.60879C26.3032 5.74964 26.0261 5.95539 25.8015 6.21223C25.6484 6.38728 25.6661 6.65332 25.8412 6.80644C26.0162 6.95956 26.2823 6.94178 26.4354 6.76673C26.5809 6.60039 26.7603 6.46713 26.9616 6.37591ZM28.1758 7.63283C28.1758 7.92355 27.9402 8.15922 27.6494 8.15922C27.3587 8.15922 27.123 7.92355 27.123 7.63283C27.123 7.34212 27.3587 7.10645 27.6494 7.10645C27.9402 7.10645 28.1758 7.34212 28.1758 7.63283Z" fill="white"/>
<path fill-rule="evenodd" clip-rule="evenodd" d="M41.3376 2.78918C41.3376 2.52753 41.1467 2.31543 40.9112 2.31543C40.6758 2.31543 40.4849 2.52753 40.4849 2.78918V8.05307C40.4849 8.31471 40.6758 8.52682 40.9112 8.52682C41.1467 8.52682 41.3376 8.31471 41.3376 8.05307V2.78918ZM38.1657 5.57824C38.1657 5.3166 37.9748 5.10449 37.7394 5.10449C37.5039 5.10449 37.313 5.3166 37.313 5.57824V8.05227C37.313 8.31391 37.5039 8.52602 37.7394 8.52602C37.9748 8.52602 38.1657 8.31391 38.1657 8.05227V5.57824ZM36.1769 6.52637C36.4123 6.52637 36.6032 6.73847 36.6032 7.00012V8.0529C36.6032 8.31454 36.4123 8.52665 36.1769 8.52665C35.9414 8.52665 35.7505 8.31454 35.7505 8.0529V7.00012C35.7505 6.73847 35.9414 6.52637 36.1769 6.52637ZM39.7751 4.21008C39.7751 3.94843 39.5842 3.73633 39.3487 3.73633C39.1133 3.73633 38.9224 3.94843 38.9224 4.21008V8.05272C38.9224 8.31436 39.1133 8.52647 39.3487 8.52647C39.5842 8.52647 39.7751 8.31436 39.7751 8.05272V4.21008Z" fill="white"/>
<path fill-rule="evenodd" clip-rule="evenodd" d="M45.8484 3.0051C46.0705 2.78299 46.3717 2.6582 46.6858 2.6582H51.4233C51.7375 2.6582 52.0387 2.78299 52.2608 3.0051C52.4829 3.22721 52.6077 3.52846 52.6077 3.84258V3.91031C52.7727 3.96865 52.9243 4.06338 53.0504 4.18947C53.2725 4.41159 53.3973 4.71284 53.3973 5.02695V5.81654C53.3973 6.13065 53.2725 6.4319 53.0504 6.65402C52.9243 6.78011 52.7727 6.87484 52.6077 6.93318V7.00091C52.6077 7.31503 52.4829 7.61628 52.2608 7.83839C52.0387 8.0605 51.7375 8.18529 51.4233 8.18529H46.6858C46.3717 8.18529 46.0705 8.0605 45.8484 7.83839C45.6262 7.61628 45.5015 7.31503 45.5015 7.00091V3.84258C45.5015 3.52846 45.6262 3.22721 45.8484 3.0051ZM46.6858 3.44779C46.5811 3.44779 46.4807 3.48938 46.4067 3.56342C46.3326 3.63746 46.291 3.73787 46.291 3.84258V7.00091C46.291 7.10562 46.3326 7.20603 46.4067 7.28007C46.4807 7.35411 46.5811 7.3957 46.6858 7.3957H51.4233C51.528 7.3957 51.6285 7.35411 51.7025 7.28007C51.7765 7.20603 51.8181 7.10562 51.8181 7.00091V6.60612C51.8181 6.38808 51.9949 6.21133 52.2129 6.21133C52.3176 6.21133 52.418 6.16973 52.4921 6.0957C52.5661 6.02166 52.6077 5.92124 52.6077 5.81654V5.02695C52.6077 4.92225 52.5661 4.82183 52.4921 4.74779C52.418 4.67376 52.3176 4.63216 52.2129 4.63216C51.9949 4.63216 51.8181 4.45541 51.8181 4.23737V3.84258C51.8181 3.73787 51.7765 3.63746 51.7025 3.56342C51.6285 3.48938 51.528 3.44779 51.4233 3.44779H46.6858ZM47.4754 4.23737C47.6935 4.23737 47.8702 4.41412 47.8702 4.63216V6.21133C47.8702 6.42937 47.6935 6.60612 47.4754 6.60612C47.2574 6.60612 47.0806 6.42937 47.0806 6.21133V4.63216C47.0806 4.41412 47.2574 4.23737 47.4754 4.23737ZM49.0546 4.23737C49.2726 4.23737 49.4494 4.41412 49.4494 4.63216V6.21133C49.4494 6.42937 49.2726 6.60612 49.0546 6.60612C48.8366 6.60612 48.6598 6.42937 48.6598 6.21133V4.63216C48.6598 4.41412 48.8366 4.23737 49.0546 4.23737ZM50.6338 4.23737C50.8518 4.23737 51.0285 4.41412 51.0285 4.63216V6.21133C51.0285 6.42937 50.8518 6.60612 50.6338 6.60612C50.4157 6.60612 50.239 6.42937 50.239 6.21133V4.63216C50.239 4.41412 50.4157 4.23737 50.6338 4.23737Z" fill="white"/>
<defs>
<clipPath id="clip0_46_3929">
<rect width="9.475" height="9.475" fill="white" transform="translate(0.171875 0.68457)"/>
</clipPath>
</defs>
</svg>
